# xmcd CD database file
#
# Track frame offsets:
#	150
#	14819
#	31064
#	47238
#	60092
#	81876
#	102240
#	116715
#	135443
#	153868
#	167777
#	183880
#	201655
#	217185
#	235447
#	253261
#	267664
#	284505
#	301451
#	316823
#
# Disc length: 4435 seconds
#
# Revision: 0
# Processed by: cddbd v1.4PL0 Copyright (c) Steve Scherf et al.
# Submitted via: CDex 1.40Beta9
#
DISCID=29115114
DTITLE=Various Artist - New Horizons
DYEAR=1999
DGENRE=Country
TTITLE0=Girls with guitars/Wynonna
TTITLE1=If I never stopped loving you/David Kersh
TTITLE2=You light up my life/Leann Rimes
TTITLE3=Party Lights/Junior Brown
TTITLE4=Wrecking Ball/Emmylou Harris
TTITLE5=Copperhead Road/Steve Earle
TTITLE6=I'm Only Sleeping/Rosanne Cash
TTITLE7=Silver Thunderbird/Jo Dee Messina
TTITLE8=Hey Cinderella/Suzy Bogguss
TTITLE9=Hearts Are Gonna Roll/Hal Ketchum
TTITLE10=For a Little While/Tim McGraw
TTITLE11=On a Bus to St. Cloud/Gretchen Peters
TTITLE12=Another Perfect Day/Blake and Brian
TTITLE13=Circus Leaving Town/Philip Claypool
TTITLE14=This Night Won't Last Forever/Sawyer Brown
TTITLE15=Say Anything/Shane McAnally
TTITLE16=Jose Cuervo/Kimber Clayton
TTITLE17=Listen To Your Heart/Al Anderson
TTITLE18=They Don't Make Them Like That Anymore/Boy Howdy
TTITLE19=Cowboy Dreams/Jimmy Nail
EXTD=YEAR: 1999 ID3G: 2
EXTT0=
EXTT1=
EXTT2=
EXTT3=
EXTT4=
EXTT5=
EXTT6=
EXTT7=
EXTT8=
EXTT9=
EXTT10=
EXTT11=
EXTT12=
EXTT13=
EXTT14=
EXTT15=
EXTT16=
EXTT17=
EXTT18=
EXTT19=
PLAYORDER=
